<?xml version="1.0" encoding="UTF-8"?>
<svg xmlns="http://www.w3.org/2000/svg" viewBox="0 0 480 360" width="480" height="360" font-family="'Comic Sans MS','Courier New',monospace" shape-rendering="crispEdges">
<rect width="480" height="360" fill="#fff"/>

  <defs><linearGradient id="g22" x1="0" y1="0" x2="0" y2="1"><stop offset="0%" stop-color="#ffce63"/><stop offset="100%" stop-color="#6abfd9"/></linearGradient></defs>
  <rect width="480" height="360" fill="url(#g22)"/>
  <!-- water -->
  <path d="M0 280 Q 60 270 120 280 T 240 280 T 360 280 T 480 280 V 360 H 0 Z" fill="#3a8eff" stroke="#000" stroke-width="3"/>
  <!-- tiny sinking ship — only mast + crow's nest above water -->
  <line x1="240" y1="100" x2="240" y2="290" stroke="#5a3a1a" stroke-width="6"/>
  <rect x="225" y="180" width="30" height="20" fill="#5a3a1a" stroke="#000" stroke-width="2"/>
  <line x1="200" y1="160" x2="280" y2="160" stroke="#5a3a1a" stroke-width="3"/>
  <!-- ragged sail -->
  <polygon points="200,160 220,200 240,180 260,200 280,160" fill="#f8e8c0" stroke="#000" stroke-width="2"/>
  <!-- jack standing on yardarm in dramatic pose -->
  <g transform="translate(240 150)">
    <!-- tricorn hat -->
    <ellipse cx="0" cy="-20" rx="16" ry="4" fill="#000"/>
    <path d="M-12 -20 Q 0 -36 12 -20 Z" fill="#000" stroke="#000" stroke-width="2"/>
    <!-- bandana under hat -->
    <path d="M-12 -16 Q 0 -10 12 -16 L 14 -8 L -14 -8 Z" fill="#a00"/>
    <!-- head -->
    <circle cx="0" cy="-2" r="10" fill="#ffe0c0" stroke="#000" stroke-width="2"/>
    <!-- dreads/beard -->
    <line x1="-8" y1="0" x2="-12" y2="14" stroke="#3a2010" stroke-width="3"/>
    <line x1="-4" y1="4" x2="-6" y2="16" stroke="#3a2010" stroke-width="3"/>
    <line x1="2" y1="6" x2="4" y2="20" stroke="#3a2010" stroke-width="3"/>
    <line x1="6" y1="2" x2="10" y2="14" stroke="#3a2010" stroke-width="3"/>
    <!-- eyes squint -->
    <circle cx="-3" cy="-3" r="1" fill="#000"/>
    <circle cx="3" cy="-3" r="1" fill="#000"/>
    <line x1="-6" y1="-5" x2="-1" y2="-3" stroke="#000" stroke-width="1"/>
    <line x1="6" y1="-5" x2="1" y2="-3" stroke="#000" stroke-width="1"/>
    <!-- crooked smile -->
    <path d="M-4 4 Q 0 8 6 4" fill="none" stroke="#000" stroke-width="1"/>
    <!-- coat -->
    <polygon points="-12,8 12,8 18,40 -18,40" fill="#5a2a1a" stroke="#000" stroke-width="2"/>
    <line x1="0" y1="8" x2="0" y2="40" stroke="#fff" stroke-width="1"/>
    <!-- arms one up dramatic -->
    <line x1="-12" y1="14" x2="-30" y2="-10" stroke="#5a2a1a" stroke-width="6"/>
    <line x1="12" y1="14" x2="20" y2="40" stroke="#5a2a1a" stroke-width="6"/>
    <!-- sword in right hand -->
    <line x1="-30" y1="-10" x2="-40" y2="-30" stroke="#bbb" stroke-width="3"/>
  </g>
  <rect x="132" y="326" width="216" height="22" fill="#fff" stroke="#000" stroke-width="2"/>
   <text x="240" y="342" text-anchor="middle" font-size="14" font-weight="bold" fill="#000">WHY IS THE RUM GONE?</text>

<rect x="2" y="2" width="476" height="356" fill="none" stroke="#000" stroke-width="5"/>
</svg>